<svg xmlns="http://www.w3.org/2000/svg" width="37.283" height="31.833" viewBox="0 0 37.283 31.833">
  <g id="首頁" transform="translate(0.853 0.121)" fill="none" stroke-linejoin="round">
    <path d="M15.444,31.712H8.516a1,1,0,0,1-1-1V15.661H.148A.988.988,0,0,1-.8,14.986a.987.987,0,0,1,.33-1.113L17.172.091a1,1,0,0,1,1.231,0l17.64,13.782a1,1,0,0,1-.616,1.788H28.06v15.05a1,1,0,0,1-1,1H21.314V25.578a1,1,0,0,0-1-1h-3.87a1,1,0,0,0-1,1v6.133Z" stroke="none"/>
    <path d="M 13.94399929046631 30.21139335632324 L 13.94399929046631 25.57799911499023 C 13.94399929046631 24.19954872131348 15.06544971466064 23.07810020446777 16.44389915466309 23.07810020446777 L 20.31389999389648 23.07810020446777 C 21.69235038757324 23.07810020446777 22.81379890441895 24.19954872131348 22.81379890441895 25.57799911499023 L 22.81379890441895 30.21060943603516 L 26.56019973754883 30.21060943603516 L 26.56019973754883 15.66088962554932 C 26.56019973754883 14.83245944976807 27.23176956176758 14.16088962554932 28.06019973754883 14.16088962554932 L 33.97578048706055 14.16088962554932 L 17.78760719299316 1.51347827911377 L 1.6002596616745 14.16089344024658 L 7.515899658203125 14.16090965270996 C 8.344329833984375 14.16090965270996 9.015899658203125 14.83247947692871 9.015899658203125 15.66090965270996 L 9.015899658203125 30.2106819152832 L 13.94399929046631 30.21139335632324 M 15.44399929046631 31.71160888671875 L 15.44299983978271 31.71160888671875 L 8.515799522399902 31.71060943603516 C 7.964449882507324 31.71060943603516 7.515899658203125 31.26204872131348 7.515899658203125 30.7106990814209 L 7.515899658203125 15.66090965270996 L 0.1484996974468231 15.66088962554932 C -0.284980297088623 15.66088962554932 -0.6562002897262573 15.39597988128662 -0.7972303032875061 14.98598957061768 C -0.9382103085517883 14.57612991333008 -0.808620274066925 14.13910961151123 -0.4671002924442291 13.87259960174561 L 17.17199897766113 0.09090950340032578 C 17.34697914123535 -0.04577049612998962 17.56560897827148 -0.1210405007004738 17.78759956359863 -0.1210405007004738 C 18.00959014892578 -0.1210405007004738 18.22821998596191 -0.04577049612998962 18.40320014953613 0.09090950340032578 L 36.0432014465332 13.87259960174561 C 36.38471984863281 14.13910961151123 36.51430892944336 14.57612991333008 36.37332916259766 14.98598957061768 C 36.2322998046875 15.39597988128662 35.86108016967773 15.66088962554932 35.4276008605957 15.66088962554932 L 28.06019973754883 15.66088962554932 L 28.06019973754883 30.7106990814209 C 28.06019973754883 31.26204872131348 27.61165046691895 31.71060943603516 27.06029891967773 31.71060943603516 L 21.31379890441895 31.71060943603516 L 21.31379890441895 25.57799911499023 C 21.31379890441895 25.02665901184082 20.86524963378906 24.57810020446777 20.31389999389648 24.57810020446777 L 16.44389915466309 24.57810020446777 C 15.89254951477051 24.57810020446777 15.44399929046631 25.02665901184082 15.44399929046631 25.57799911499023 L 15.44399929046631 31.71060943603516 L 15.44399929046631 31.71160888671875 Z" stroke="none" fill="#fff"/>
  </g>
</svg>
