<svg xmlns="http://www.w3.org/2000/svg" width="30.235" height="28.346" viewBox="0 0 30.235 28.346">
  <g id="潮汐" transform="translate(-127.412 -74.159)">
    <path id="路径_113" data-name="路径 113" d="M-24-4.186C-22.276-4.186-22.342-8-20.684-8s1.658,3.814,3.316,3.814S-15.71-8-14.052-8s1.658,3.814,3.316,3.814S-9.077-8-7.419-8-5.735-4.186-4.1-4.186" transform="translate(161 97.867)" fill="none" stroke="#fff" stroke-linecap="round" stroke-linejoin="round" stroke-width="1.5"/>
    <path id="路径_114" data-name="路径 114" d="M-24-4.186C-22.276-4.186-22.342-8-20.684-8s1.658,3.814,3.316,3.814S-15.71-8-14.052-8s1.658,3.814,3.316,3.814S-9.077-8-7.419-8-5.735-4.186-4.1-4.186" transform="translate(161 89.911)" fill="none" stroke="#fff" stroke-linecap="round" stroke-linejoin="round" stroke-width="1.5"/>
    <path id="联合_29" data-name="联合 29" d="M3.039,27.741.112,21.31a1,1,0,0,1,.91-1.414H2.829V8.411H1.021A1,1,0,0,1,.112,7L3.039.567a1,1,0,0,1,1.82,0L7.787,7a1,1,0,0,1-.91,1.414H5.07V19.9H6.877a1,1,0,0,1,.91,1.414L4.859,27.741a1,1,0,0,1-1.82,0Z" transform="translate(127.391 74.177)" fill="#fff"/>
  </g>
</svg>
