<svg xmlns="http://www.w3.org/2000/svg" width="110.47" height="82" viewBox="0 0 110.47 82">
  <g id="_28" data-name="28" transform="translate(-990 -540)">
    <g id="组_47" data-name="组 47" transform="translate(990 540)">
      <path id="路径_9" data-name="路径 9" d="M2205.515,209.991c19.584,4.577,72.983,1.917,80.139,0s11.5-5.95,9.771-15.618-11.472-12.643-18.667-10.914c2.361-14.372-13.126-23.557-25.156-22.181s-16.492,15.618-16.492,15.618c-11.267-13.889-31.7,3.116-27.288,12.586C2198.862,187.57,2186.056,204.864,2205.515,209.991Z" transform="translate(-2195.326 -161.142)" fill="#9cd6fc"/>
      <path id="路径_10" data-name="路径 10" d="M2266.29,199.536c-15.393,3.6-57.363,1.507-62.986,0s-9.038-4.676-7.679-12.275,9.016-9.937,14.672-8.578c-1.856-11.3,10.317-18.515,19.772-17.434s12.962,12.275,12.962,12.275c8.855-10.916,24.918,2.449,21.447,9.892C2271.519,181.913,2281.583,195.506,2266.29,199.536Z" transform="translate(-2163.827 -135.37)" fill="#9abed5"/>
    </g>
    <path id="联合_24" data-name="联合 24" d="M15.346,21a4,4,0,0,1-4-4v-.842a4,4,0,0,1,4-4H25.712V8.843H4a4,4,0,0,1-4-4V4A4,4,0,0,1,4,0H43.654a4,4,0,0,1,4,4v.842a4,4,0,0,1-4,4H37.442v3.316H55a4,4,0,0,1,4,4V17a4,4,0,0,1-4,4Z" transform="translate(1006 601)" fill="#b6e7f9"/>
  </g>
</svg>
