<svg xmlns="http://www.w3.org/2000/svg" width="104.145" height="88.34" viewBox="0 0 104.145 88.34">
  <g id="_14" data-name="14" transform="translate(-175.327 -149.699)">
    <path id="路径_9" data-name="路径 9" d="M2205.886,211.775c20.3,4.744,75.647,1.987,83.065,0s11.919-6.167,10.126-16.188-11.89-13.1-19.348-11.312c2.448-14.9-13.605-24.417-26.075-22.991s-17.094,16.188-17.094,16.188c-11.679-14.4-32.861,3.229-28.285,13.046C2198.991,188.535,2185.718,206.46,2205.886,211.775Z" transform="translate(-2020 -11.443)" fill="#9abed5"/>
    <g id="组_28" data-name="组 28" transform="translate(194.014 209.699)">
      <path id="路径_11" data-name="路径 11" d="M4.272,0C6.1,0,8.545,8.6,8.545,10.955a4.272,4.272,0,0,1-8.545,0C0,8.6,2.447,0,4.272,0Z" transform="translate(5.208 0) rotate(20)" fill="#b6e7f9"/>
      <path id="路径_12" data-name="路径 12" d="M4.272,0C6.1,0,8.545,8.6,8.545,10.955a4.272,4.272,0,0,1-8.545,0C0,8.6,2.447,0,4.272,0Z" transform="translate(28.279 11.108) rotate(20)" fill="#b6e7f9"/>
      <path id="路径_13" data-name="路径 13" d="M4.272,0C6.1,0,8.545,8.6,8.545,10.955a4.272,4.272,0,0,1-8.545,0C0,8.6,2.447,0,4.272,0Z" transform="translate(58.185 6.836) rotate(20)" fill="#b6e7f9"/>
    </g>
  </g>
</svg>
