<svg xmlns="http://www.w3.org/2000/svg" width="120" height="76" viewBox="0 0 120 76">
  <g id="_2" data-name="2" transform="translate(-172 -135)">
    <path id="路径_9" data-name="路径 9" d="M2204.559,205.41c17.747,4.148,66.137,1.738,72.623,0s10.421-5.392,8.854-14.153-10.4-11.457-16.917-9.89c2.14-13.024-11.9-21.348-22.8-20.1s-14.945,14.153-14.945,14.153c-10.211-12.586-28.729,2.823-24.729,11.406C2198.53,185.091,2186.926,200.763,2204.559,205.41Z" transform="translate(-1994.379 0.764)" fill="#c3edff"/>
    <path id="路径_105" data-name="路径 105" d="M33.6,0A38,38,0,1,1,15.255,71.284S37.776,62.1,37.534,38,17.417,3.549,19.309,2.76A37.611,37.611,0,0,1,33.6,0Z" transform="translate(156.745 135)" fill="#fed97f"/>
  </g>
</svg>
