<svg xmlns="http://www.w3.org/2000/svg" width="107.024" height="81" viewBox="0 0 107.024 81">
  <g id="_25" data-name="25" transform="translate(-990 -690)">
    <path id="路径_9" data-name="路径 9" d="M2203.561,200.623c15.828,3.7,58.986,1.55,64.77,0s9.294-4.809,7.9-12.623-9.272-10.218-15.087-8.821c1.909-11.616-10.609-19.039-20.332-17.927s-13.329,12.623-13.329,12.623c-9.107-11.225-25.623,2.518-22.055,10.172C2198.184,182.5,2187.834,196.479,2203.561,200.623Z" transform="translate(-1179.51 552.854)" fill="#c3edff"/>
    <path id="路径_112" data-name="路径 112" d="M33.6,0A38,38,0,1,1,15.255,71.284S37.776,62.1,37.534,38,17.417,3.549,19.309,2.76A37.611,37.611,0,0,1,33.6,0Z" transform="translate(974.745 690)" fill="#fed97f"/>
    <path id="联合_25" data-name="联合 25" d="M15.346,21a4,4,0,0,1-4-4v-.842a4,4,0,0,1,4-4H25.712V8.843H4a4,4,0,0,1-4-4V4A4,4,0,0,1,4,0H43.654a4,4,0,0,1,4,4v.842a4,4,0,0,1-4,4H37.442v3.316H55a4,4,0,0,1,4,4V17a4,4,0,0,1-4,4Z" transform="translate(1027 750)" fill="#b6e7f9"/>
  </g>
</svg>
