<svg xmlns="http://www.w3.org/2000/svg" width="80.572" height="90" viewBox="0 0 80.572 90">
  <g id="_42" data-name="42" transform="translate(-1021.386 -418)">
    <path id="联合_23" data-name="联合 23" d="M38.714,90V79.617l-4.558,2.6-1.573-2.687,6.132-3.494V70.394l-8.492,4.837L27.864,71.2l10.85-6.18V59.508l-3.67-5.974H28.449L23.69,56.245V69.19H18.97V58.934L13.945,61.8l0,7.394H10.8v-5.6L1.573,68.843,0,66.157l9.182-5.231-4.831-2.75,1.573-2.687,6.4,3.645,4.95-2.82-8.76-4.991,2.361-4.032,11.118,6.334,3.856-2.2L29.8,45l-3.951-6.433-5.5-3.135L9.3,41.722l-2.36-4.03,8.684-4.948-4.95-2.819-6.326,3.6L2.779,30.841l4.753-2.707L0,23.843l1.573-2.686,7.652,4.359V19.827h3.148v7.482L17.4,30.171l0-10.344h4.718V32.859l6.331,3.606h6.595l3.67-5.974V24l-10.85-6.18,2.358-4.032,8.492,4.835V12.983L32.582,9.491,34.155,6.8l4.558,2.6V0h3.145V9.756L47.045,6.8l1.573,2.689-6.759,3.851v5.725l9.275-5.281,2.357,4.032L41.859,24.442v6.05l3.67,5.974h6.595l7.115-4.052V19.827h4.72v9.9l5.025-2.862,0-7.035h3.146V25.07L79,21.157l1.573,2.686-7.14,4.067,5.142,2.93L77,33.527,70.286,29.7l-4.95,2.819,9.075,5.171-2.36,4.03L60.618,35.209l-5.9,3.358L50.772,45l3.948,6.431,5.61,3.2,10.15-5.781,2.36,4.03-7.791,4.439L70,60.133l5.433-3.094L77,59.726l-3.859,2.2,7.429,4.232L79,68.843l-8.442-4.809v6.708H67.41v-8.5L62.386,59.38l0,11.363-4.718,0V56.777h.15l-5.692-3.242H45.529l-3.67,5.974v5.066L53.491,71.2l-2.357,4.032-9.275-5.283v5.725l6.759,3.853-1.573,2.687L41.859,79.26V90ZM32.661,49.655l-.238.389h5.242l2.621,4.266,2.621-4.266H48.15l-2.621-4.268,2.621-4.268H42.908l-2.621-4.266L37.9,41.121l-.239.387H32.423l2.621,4.268-2.383,3.879L29.8,45Z" transform="translate(1021.386 418)" fill="#8cd1ff"/>
    <line id="直线_1" data-name="直线 1" x2="30" transform="translate(1046.671 464.25)" fill="none" stroke="#8cd1ff" stroke-width="1"/>
    <line id="直线_2" data-name="直线 2" x2="30" transform="translate(1054.171 451.26) rotate(60)" fill="none" stroke="#8cd1ff" stroke-width="1"/>
    <line id="直线_3" data-name="直线 3" x2="30" transform="translate(1069.171 451.26) rotate(120)" fill="none" stroke="#8cd1ff" stroke-width="1"/>
  </g>
</svg>
