<svg xmlns="http://www.w3.org/2000/svg" width="120" height="71.862" viewBox="0 0 120 71.862">
  <g id="_7" data-name="7" transform="translate(-170.326 -147.142)">
    <path id="路径_9" data-name="路径 9" d="M2206.393,214.206c21.274,4.972,79.28,2.083,87.053,0s12.491-6.463,10.613-16.965-12.461-13.734-20.278-11.856c2.565-15.612-14.259-25.589-27.326-24.095s-17.915,16.965-17.915,16.965c-12.239-15.087-34.438,3.384-29.642,13.672C2199.167,189.85,2185.256,208.636,2206.393,214.206Z" transform="translate(-2025 -14)" fill="#9abed5"/>
    <path id="路径_10" data-name="路径 10" d="M2272.412,202.848c-16.721,3.908-62.311,1.637-68.42,0s-9.818-5.08-8.341-13.334,9.794-10.794,15.937-9.318c-2.016-12.271,11.207-20.112,21.478-18.938s14.08,13.334,14.08,13.334c9.62-11.858,27.067,2.66,23.3,10.746C2278.092,183.705,2289.024,198.471,2272.412,202.848Z" transform="translate(-1990.783 13.995)" fill="#9cd6fc"/>
  </g>
</svg>
