<svg xmlns="http://www.w3.org/2000/svg" width="104.145" height="88.34" viewBox="0 0 104.145 88.34">
  <g id="_23" data-name="23" transform="translate(-175.327 -149.699)">
    <path id="路径_9" data-name="路径 9" d="M2205.886,211.775c20.3,4.744,75.647,1.987,83.065,0s11.919-6.167,10.126-16.188-11.89-13.1-19.348-11.312c2.448-14.9-13.605-24.417-26.075-22.991s-17.094,16.188-17.094,16.188c-11.679-14.4-32.861,3.229-28.285,13.046C2198.991,188.535,2185.718,206.46,2205.886,211.775Z" transform="translate(-2020 -11.443)" fill="#e7e7e7"/>
    <g id="组_28" data-name="组 28" transform="translate(194.014 209.699)">
      <path id="路径_11" data-name="路径 11" d="M4.272,0C6.1,0,8.545,8.6,8.545,10.955a4.272,4.272,0,0,1-8.545,0C0,8.6,2.447,0,4.272,0Z" transform="translate(5.208 0) rotate(20)" fill="#b6e7f9"/>
      <path id="路径_12" data-name="路径 12" d="M4.272,0C6.1,0,8.545,8.6,8.545,10.955a4.272,4.272,0,0,1-8.545,0C0,8.6,2.447,0,4.272,0Z" transform="translate(28.279 11.108) rotate(20)" fill="#b6e7f9"/>
      <path id="路径_13" data-name="路径 13" d="M4.272,0C6.1,0,8.545,8.6,8.545,10.955a4.272,4.272,0,0,1-8.545,0C0,8.6,2.447,0,4.272,0Z" transform="translate(58.185 6.836) rotate(20)" fill="#b6e7f9"/>
    </g>
    <g id="组_79" data-name="组 79" transform="translate(-439.344 -679.134) rotate(30)">
      <path id="联合_23" data-name="联合 23" d="M8.155,18.958V16.77l-.96.547-.331-.566,1.292-.736V14.828L6.366,15.847,5.869,15l2.285-1.3V12.535l-.773-1.258H5.993l-1,.571v2.727H4v-2.16l-1.058.6v1.557H2.274v-1.18L.331,14.5,0,13.935l1.934-1.1L.917,12.254l.331-.566,1.348.768,1.043-.594L1.794,10.811l.5-.849L4.633,11.3l.812-.463.832-1.355L5.445,8.124l-1.159-.66L1.96,8.788l-.5-.849L3.292,6.9,2.249,6.3.917,7.062.585,6.5l1-.57L0,5.022l.331-.566,1.612.918v-1.2h.663V5.752l1.058.6V4.176h.994V6.921l1.334.76H7.382l.773-1.258V5.055l-2.285-1.3.5-.849L8.155,3.922V2.735L6.863,2l.331-.566.96.547V0h.662V2.055L9.91,1.433,10.241,2,8.817,2.81V4.016L10.771,2.9l.5.849-2.45,1.4V6.423L9.59,7.681h1.389l1.5-.854V4.176h.994V6.261l1.058-.6V4.176h.663v1.1l1.447-.824.331.566-1.5.857,1.083.617-.331.566-1.415-.806-1.043.594,1.912,1.089-.5.849L12.768,7.416l-1.242.707-.832,1.355.832,1.355,1.182.673,2.138-1.218.5.849-1.641.935,1.043.594,1.144-.652.331.566-.813.463,1.565.891-.331.566-1.778-1.013V14.9H14.2V13.111l-1.058-.6V14.9h-.994V11.959h.032l-1.2-.683H9.59l-.773,1.258V13.6l2.45,1.4-.5.849L8.817,14.734V15.94l1.424.812-.331.566L8.817,16.7v2.262Zm-1.275-8.5-.05.082h1.1l.552.9.552-.9h1.1l-.552-.9.552-.9h-1.1l-.552-.9-.5.817-.05.082H6.83l.552.9-.5.817-.6-.981Z" transform="translate(1021.386 418)" fill="#8cd1ff"/>
      <line id="直线_1" data-name="直线 1" x2="6.319" transform="translate(1026.712 427.742)" fill="none" stroke="#8cd1ff" stroke-width="1"/>
      <line id="直线_2" data-name="直线 2" x2="6.319" transform="translate(1028.292 425.006) rotate(60)" fill="none" stroke="#8cd1ff" stroke-width="1"/>
      <line id="直线_3" data-name="直线 3" x2="6.319" transform="translate(1031.452 425.006) rotate(120)" fill="none" stroke="#8cd1ff" stroke-width="1"/>
    </g>
    <g id="组_80" data-name="组 80" transform="translate(-819.751 -238.301)">
      <path id="联合_23-2" data-name="联合 23" d="M11.366,26.423V23.375l-1.338.762-.462-.789,1.8-1.026V20.667l-2.493,1.42L8.181,20.9l3.185-1.814V17.471l-1.077-1.754H8.352l-1.4.8v3.8H5.569V17.3l-1.475.84v2.171H3.17V18.669L.462,20.212,0,19.423l2.7-1.536L1.278,17.08l.462-.789,1.879,1.07,1.453-.828L2.5,15.069l.693-1.184,3.264,1.86L7.59,15.1l1.16-1.888L7.59,11.323,5.974,10.4,2.732,12.249l-.693-1.183,2.55-1.453L3.135,8.786,1.278,9.843.816,9.055l1.4-.795L0,7l.462-.789,2.247,1.28V5.821h.924v2.2l1.475.84V5.821H6.494V9.647l1.859,1.059h1.936l1.077-1.754V7.045L8.181,5.231l.692-1.184,2.493,1.42V3.812l-1.8-1.025L10.028,2l1.338.763V0h.923V2.864L13.812,2l.462.789L12.29,3.917V5.6l2.723-1.55L15.7,5.231,12.29,7.176V8.952l1.077,1.754H15.3l2.089-1.19v-3.7h1.386V8.727l1.475-.84V5.821h.924V7.36l2.017-1.149L23.656,7l-2.1,1.194,1.51.86-.461.789L20.636,8.72l-1.453.828,2.664,1.518-.693,1.183L17.8,10.337l-1.731.986-1.16,1.889L16.065,15.1l1.647.938,2.98-1.7.693,1.183-2.287,1.3,1.453.828,1.6-.908.461.789-1.133.646,2.181,1.242-.462.789L20.715,18.8v1.969h-.924v-2.5l-1.475-.84v3.336H16.93v-4.1h.044L15.3,15.717H13.367L12.29,17.471v1.487L15.7,20.9l-.692,1.184L12.29,20.536v1.681l1.984,1.131-.462.789L12.29,23.27v3.153ZM9.589,14.578l-.07.114h1.539l.77,1.252.77-1.252h1.539l-.77-1.253.77-1.253H12.6l-.77-1.252-.7,1.139-.07.114H9.519l.77,1.253-.7,1.139-.84-1.367Z" transform="translate(1021.386 418)" fill="#8cd1ff"/>
      <line id="直线_1-2" data-name="直线 1" x2="8.808" transform="translate(1028.81 431.579)" fill="none" stroke="#8cd1ff" stroke-width="1"/>
      <line id="直线_2-2" data-name="直线 2" x2="8.808" transform="translate(1031.011 427.765) rotate(60)" fill="none" stroke="#8cd1ff" stroke-width="1"/>
      <line id="直线_3-2" data-name="直线 3" x2="8.808" transform="translate(1035.415 427.765) rotate(120)" fill="none" stroke="#8cd1ff" stroke-width="1"/>
    </g>
  </g>
</svg>
