<svg xmlns="http://www.w3.org/2000/svg" width="105.631" height="88" viewBox="0 0 105.631 88">
  <g id="_36" data-name="36" transform="translate(-175.327 -149.699)">
    <path id="路径_9" data-name="路径 9" d="M2205.026,207.908c18.646,4.382,69.485,1.836,76.3,0s10.948-5.7,9.3-14.952-10.921-12.1-17.772-10.449c2.248-13.759-12.5-22.552-23.95-21.235s-15.7,14.952-15.7,14.952c-10.727-13.3-30.184,2.983-25.98,12.049C2198.692,186.443,2186.5,203,2205.026,207.908Z" transform="translate(-2020 -11.443)" fill="#9cd6fc"/>
    <path id="路径_10" data-name="路径 10" d="M2266.132,199.663c-15.359,3.609-57.235,1.512-62.846,0s-9.018-4.692-7.661-12.316,9-9.97,14.639-8.606c-1.852-11.333,10.294-18.576,19.728-17.491s12.933,12.316,12.933,12.316c8.836-10.952,24.862,2.457,21.4,9.925C2271.349,181.982,2281.391,195.62,2266.132,199.663Z" transform="translate(-1993.164 5.952)" fill="#9abed5"/>
    <g id="组_28" data-name="组 28" transform="translate(202.874 210.519)">
      <path id="路径_11" data-name="路径 11" d="M3.909,0C5.587,0,7.85,7.941,7.854,10.119A3.927,3.927,0,1,1,0,10.1C0,7.927,2.231,0,3.909,0Z" transform="translate(15.807 6.174) rotate(20)" fill="#b6e7f9"/>
      <path id="路径_12" data-name="路径 12" d="M3.909,0C5.587,0,7.85,7.941,7.854,10.119A3.927,3.927,0,1,1,0,10.1C0,7.927,2.231,0,3.909,0Z" transform="translate(37.26 11.286) rotate(20)" fill="#b6e7f9"/>
      <path id="路径_13" data-name="路径 13" d="M3.909,0C5.587,0,7.85,7.941,7.854,10.119A3.927,3.927,0,1,1,0,10.1C0,7.927,2.231,0,3.909,0Z" transform="translate(58.919 3) rotate(20)" fill="#b6e7f9"/>
    </g>
    <path id="联合_28" data-name="联合 28" d="M13.789,18a3.789,3.789,0,0,1,0-7.579h8.873V7.579H3.789A3.789,3.789,0,0,1,3.789,0H38.21a3.789,3.789,0,0,1,0,7.579H33v2.842H48.21a3.789,3.789,0,1,1,0,7.579Z" transform="translate(187.326 197.699)" fill="#b6e7f9"/>
    <g id="组_70" data-name="组 70" transform="translate(22.097 -1.511)">
      <path id="路径_14" data-name="路径 14" d="M2223.967,741.246s-.226-.564-.7-.564-.764.564-.764.564l-6.533,16.09s-.285.426.048.711a1.186,1.186,0,0,0,.865.192l7.181.365-5.718,14a.472.472,0,0,0,.437.6c.575.1,1.065-.6,1.065-.6l11.767-15.97a.948.948,0,0,0,.3-.689c-.052-.354-.1-.46-.423-.527l-8.242-1.715Z" transform="translate(-1994 -542)" fill="#fef038"/>
    </g>
  </g>
</svg>
