<svg xmlns="http://www.w3.org/2000/svg" width="105.631" height="88" viewBox="0 0 105.631 88">
  <g id="_37" data-name="37" transform="translate(-175.327 -149.699)">
    <path id="路径_9" data-name="路径 9" d="M2205.026,207.908c18.646,4.382,69.485,1.836,76.3,0s10.948-5.7,9.3-14.952-10.921-12.1-17.772-10.449c2.248-13.759-12.5-22.552-23.95-21.235s-15.7,14.952-15.7,14.952c-10.727-13.3-30.184,2.983-25.98,12.049C2198.692,186.443,2186.5,203,2205.026,207.908Z" transform="translate(-2020 -11.443)" fill="#e7e7e7"/>
    <path id="路径_10" data-name="路径 10" d="M2266.132,199.663c-15.359,3.609-57.235,1.512-62.846,0s-9.018-4.692-7.661-12.316,9-9.97,14.639-8.606c-1.852-11.333,10.294-18.576,19.728-17.491s12.933,12.316,12.933,12.316c8.836-10.952,24.862,2.457,21.4,9.925C2271.349,181.982,2281.391,195.62,2266.132,199.663Z" transform="translate(-1993.164 5.952)" fill="#d0d0d0"/>
    <g id="组_28" data-name="组 28" transform="translate(202.874 210.519)">
      <path id="路径_11" data-name="路径 11" d="M3.909,0C5.587,0,7.85,7.941,7.854,10.119A3.927,3.927,0,1,1,0,10.1C0,7.927,2.231,0,3.909,0Z" transform="translate(15.807 6.174) rotate(20)" fill="#b6e7f9"/>
      <path id="路径_12" data-name="路径 12" d="M3.909,0C5.587,0,7.85,7.941,7.854,10.119A3.927,3.927,0,1,1,0,10.1C0,7.927,2.231,0,3.909,0Z" transform="translate(37.26 11.286) rotate(20)" fill="#b6e7f9"/>
      <path id="路径_13" data-name="路径 13" d="M3.909,0C5.587,0,7.85,7.941,7.854,10.119A3.927,3.927,0,1,1,0,10.1C0,7.927,2.231,0,3.909,0Z" transform="translate(58.919 3) rotate(20)" fill="#b6e7f9"/>
    </g>
    <path id="联合_28" data-name="联合 28" d="M13.789,18a3.789,3.789,0,0,1,0-7.579h8.873V7.579H3.789A3.789,3.789,0,0,1,3.789,0H38.21a3.789,3.789,0,0,1,0,7.579H33v2.842H48.21a3.789,3.789,0,1,1,0,7.579Z" transform="translate(187.326 197.699)" fill="#b6e7f9"/>
    <g id="组_73" data-name="组 73" transform="translate(-779.917 -215.301)">
      <path id="联合_23" data-name="联合 23" d="M8.924,20.745V18.352l-1.051.6-.363-.619,1.413-.805v-1.3L6.966,17.341l-.544-.929,2.5-1.424v-1.27L8.078,12.34H6.558l-1.1.625v2.984H4.373V13.584l-1.158.66v1.7H2.489V14.657L.363,15.868,0,15.249l2.116-1.206L1,13.41l.363-.619,1.476.84,1.141-.65L1.963,11.83l.544-.929,2.563,1.46.889-.506.911-1.482L5.959,8.89,4.69,8.167,2.145,9.617,1.6,8.688l2-1.14L2.461,6.9,1,7.728.641,7.109l1.1-.624L0,5.5l.363-.619,1.764,1V4.57h.726V6.295l1.158.66V4.57H5.1v3l1.459.831h1.52l.846-1.377v-1.5l-2.5-1.424.544-.929L8.924,4.292v-1.3l-1.413-.8.363-.62,1.051.6V0h.725V2.249l1.2-.681.362.62-1.558.888v1.32l2.138-1.217.543.929L9.648,5.634V7.028l.846,1.377h1.52l1.64-.934V4.57h1.088V6.851l1.158-.66V4.57h.725V5.779l1.583-.9.362.619-1.646.937,1.185.675-.362.619L16.2,6.846,15.06,7.5l2.092,1.192-.544.929-2.636-1.5-1.359.774L11.7,10.372l.91,1.482,1.293.737,2.339-1.332.544.929-1.8,1.023,1.141.65,1.252-.713.362.619-.889.507,1.712.975-.362.619L16.264,14.76v1.546h-.726V14.347l-1.158-.66v2.619H13.292V13.087h.035l-1.312-.747h-1.52l-.846,1.377v1.168l2.681,1.527-.543.929L9.648,16.123v1.32l1.558.888-.362.619-1.2-.681v2.475Zm-1.4-9.3-.055.09H8.682l.6.983.6-.983H11.1l-.6-.984.6-.984H9.89l-.6-.983-.549.894-.055.089H7.473l.6.984-.549.894-.659-1.073Z" transform="translate(1021.386 418)" fill="#8cd1ff"/>
      <line id="直线_1" data-name="直线 1" x2="6.915" transform="translate(1027.214 428.661)" fill="none" stroke="#8cd1ff" stroke-width="1"/>
      <line id="直线_2" data-name="直线 2" x2="6.915" transform="translate(1028.943 425.666) rotate(60)" fill="none" stroke="#8cd1ff" stroke-width="1"/>
      <line id="直线_3" data-name="直线 3" x2="6.915" transform="translate(1032.4 425.666) rotate(120)" fill="none" stroke="#8cd1ff" stroke-width="1"/>
    </g>
  </g>
</svg>
