<svg xmlns="http://www.w3.org/2000/svg" width="111" height="80.001" viewBox="0 0 111 80.001">
  <g id="_26" data-name="26" transform="translate(-172 -135)">
    <ellipse id="椭圆_7" data-name="椭圆 7" cx="34" cy="35.5" rx="34" ry="35.5" transform="translate(172 135)" fill="#fed97f"/>
    <path id="路径_9" data-name="路径 9" d="M2203.867,202.09c16.416,3.836,61.177,1.607,67.176,0s9.639-4.987,8.19-13.092-9.616-10.6-15.648-9.149c1.979-12.047-11-19.747-21.087-18.593s-13.824,13.092-13.824,13.092c-9.445-11.642-26.575,2.612-22.874,10.55C2198.29,183.295,2187.556,197.792,2203.867,202.09Z" transform="translate(-1996.55 -1.254)" fill="#c3edff"/>
    <path id="联合_26" data-name="联合 26" d="M14.962,20a4,4,0,0,1-4-4v-.421a4,4,0,0,1,4-4h9.879V8.421H4a4,4,0,0,1-4-4V4A4,4,0,0,1,4,0H42.038a4,4,0,0,1,4,4v.421a4,4,0,0,1-4,4H36.173v3.158H53a4,4,0,0,1,4,4V16a4,4,0,0,1-4,4Z" transform="translate(216 195)" fill="#b6e7f9"/>
  </g>
</svg>
