<svg xmlns="http://www.w3.org/2000/svg" width="103.349" height="81" viewBox="0 0 103.349 81">
  <g id="_24" data-name="24" transform="translate(-993.651 -540)">
    <path id="路径_111" data-name="路径 111" d="M33.6,0A38,38,0,1,1,15.255,71.284S37.776,62.1,37.534,38,17.417,3.549,19.309,2.76A37.611,37.611,0,0,1,33.6,0Z" transform="translate(978.396 540)" fill="#fed97f"/>
    <path id="联合_24" data-name="联合 24" d="M17.462,25a4,4,0,0,1-4-4V18.474a4,4,0,0,1,4-4H30.506V10.526H4a4,4,0,0,1-4-4V4A4,4,0,0,1,4,0H52.538a4,4,0,0,1,4,4V6.527a4,4,0,0,1-4,4H44.423v3.947H66a4,4,0,0,1,4,4V21a4,4,0,0,1-4,4Z" transform="translate(1027 596)" fill="#b6e7f9"/>
  </g>
</svg>
