<svg xmlns="http://www.w3.org/2000/svg" width="115" height="85.783" viewBox="0 0 115 85.783">
  <g id="_15" data-name="15" transform="translate(-175.327 -149.699)">
    <path id="路径_9" data-name="路径 9" d="M2205.886,211.775c20.3,4.744,75.647,1.987,83.065,0s11.919-6.167,10.126-16.188-11.89-13.1-19.348-11.312c2.448-14.9-13.605-24.417-26.075-22.991s-17.094,16.188-17.094,16.188c-11.679-14.4-32.861,3.229-28.285,13.046C2198.991,188.535,2185.718,206.46,2205.886,211.775Z" transform="translate(-2020 -11.443)" fill="#9abed5"/>
    <path id="路径_10" data-name="路径 10" d="M2272.412,202.848c-16.721,3.908-62.311,1.637-68.42,0s-9.817-5.08-8.341-13.334,9.794-10.794,15.937-9.318c-2.016-12.271,11.207-20.112,21.478-18.938s14.08,13.334,14.08,13.334c9.62-11.858,27.067,2.66,23.3,10.746C2278.092,183.705,2289.024,198.47,2272.412,202.848Z" transform="translate(-1990.784 7.39)" fill="#9cd6fc"/>
    <g id="组_36" data-name="组 36" transform="translate(9.466 4.272)">
      <path id="路径_14" data-name="路径 14" d="M2223.967,741.246s-.226-.564-.7-.564-.764.564-.764.564l-6.533,16.09s-.285.426.048.711a1.186,1.186,0,0,0,.865.192l7.181.365-5.718,14a.472.472,0,0,0,.437.6c.575.1,1.065-.6,1.065-.6l11.767-15.97a.948.948,0,0,0,.3-.689c-.052-.354-.1-.46-.423-.527l-8.242-1.715Z" transform="translate(-1994 -542)" fill="#fef038"/>
    </g>
    <g id="组_37" data-name="组 37" transform="translate(194.014 205.482)">
      <path id="路径_11" data-name="路径 11" d="M4.272,0C6.1,0,8.545,8.6,8.545,10.955a4.272,4.272,0,0,1-8.545,0C0,8.6,2.447,0,4.272,0Z" transform="translate(0.208 2) rotate(20)" fill="#b6e7f9"/>
      <path id="路径_12" data-name="路径 12" d="M4.272,0C6.1,0,8.545,8.6,8.545,10.955a4.272,4.272,0,0,1-8.545,0C0,8.6,2.447,0,4.272,0Z" transform="translate(22.279 10.768) rotate(20)" fill="#b6e7f9"/>
      <path id="路径_13" data-name="路径 13" d="M4.272,0C6.1,0,8.545,8.6,8.545,10.955a4.272,4.272,0,0,1-8.545,0C0,8.6,2.447,0,4.272,0Z" transform="translate(67.02 6.836) rotate(20)" fill="#b6e7f9"/>
    </g>
  </g>
</svg>
